<!-- Generator: Adobe Illustrator 22.0.1, SVG Export Plug-In . SVG Version: 6.00 Build 0)  -->
<svg xmlns="http://www.w3.org/2000/svg" xmlns:xlink="http://www.w3.org/1999/xlink" version="1.1" id="Warstwa_2" x="0px" y="0px" viewBox="235 11 61 38" style="enable-background:new 0 0 531 60;" width="200" height="69" xml:space="preserve">
<style type="text/css">
	.st0{fill:#252668;}
	.st1{fill-rule:evenodd;clip-rule:evenodd;fill:#252668;}
	.st2{display:none;fill-rule:evenodd;clip-rule:evenodd;fill:#252668;}
	.st3{fill-rule:evenodd;clip-rule:evenodd;}
	.st4{fill:#D8D9D9;}
	.st5{fill:#575656;}
	.st6{fill:#9B9B9B;}
</style>
<g>
	<g>
		<path class="st0" d="M314.902,20.04c-2.145-2.143-5.112-3.47-8.385-3.47c-3.273,0-6.241,1.327-8.385,3.47    c-2.145,2.143-3.474,5.107-3.473,8.378c0,3.27,1.328,6.235,3.473,8.378c2.145,2.143,5.112,3.47,8.385,3.47    c3.273,0,6.241-1.327,8.385-3.47c2.145-2.143,3.474-5.107,3.473-8.378C318.375,25.147,317.047,22.183,314.902,20.04z     M295.563,28.418c0-3.023,1.225-5.756,3.208-7.738c1.984-1.981,4.719-3.205,7.745-3.205c0.306,0,0.608,0.016,0.908,0.04    l-3.174,14.394l-7.402,1.652C296.029,32.027,295.563,30.278,295.563,28.418z M306.516,39.361c-3.026,0-5.762-1.224-7.745-3.205    c-0.746-0.746-1.385-1.598-1.892-2.533h7.37l5.777,5.16C308.924,39.156,307.745,39.361,306.516,39.361z M314.262,36.156    c-1.094,1.092-2.416,1.952-3.89,2.506l0.161-0.481c0,0,0.358-0.989-0.452-1.715c-0.81-0.726-3.119-2.843-3.119-2.843h9.192    C315.647,34.557,315.008,35.41,314.262,36.156z M312.883,33.082l-0.452-0.542l-2.305-0.09l1.582,0.271v0.226h-4.158v-0.361    c0,0-0.006-0.27-0.226-0.496c-0.22-0.227-0.452-0.271-0.452-0.271l2.667-9.206c0,0,0.54-2.061-0.316-3.385    c-0.482-0.745-0.966-1.309-1.296-1.66c2.461,0.316,4.666,1.444,6.336,3.112c1.983,1.982,3.208,4.715,3.208,7.738    c0,1.866-0.468,3.621-1.292,5.157L312.883,33.082z"/>
		<path class="st0" d="M284.089,16.57c-2.549,0-4.861,1.033-6.53,2.702c-1.671,1.668-2.705,3.978-2.705,6.524    c0,2.547,1.034,4.856,2.705,6.524c1.67,1.669,3.981,2.703,6.53,2.702c2.549,0,4.861-1.033,6.53-2.702    c0.314-0.314,0.605-0.65,0.872-1.006c-0.793,2.281-2.062,4.339-3.691,6.055c-2.558,2.693-5.996,4.539-9.854,5.08l-0.269,0.947    c4.227-0.496,8-2.476,10.78-5.404c3.016-3.176,4.868-7.472,4.868-12.195c0-2.547-1.034-4.856-2.705-6.524    C288.949,17.603,286.638,16.57,284.089,16.57z M289.979,31.682c-1.509,1.507-3.589,2.437-5.89,2.438    c-2.302,0-4.381-0.931-5.89-2.438c-1.508-1.507-2.44-3.585-2.44-5.885c0-2.3,0.932-4.377,2.44-5.885    c1.509-1.507,3.588-2.437,5.89-2.438c2.302,0,4.381,0.931,5.89,2.438c1.508,1.507,2.44,3.585,2.44,5.885    C292.419,28.096,291.487,30.174,289.979,31.682z"/>
	</g>
	<g>
		<path class="st0" d="M285.739,41.849l0.737,1.579h-0.17l-0.248-0.519h-0.681l-0.246,0.519h-0.176l0.747-1.579H285.739z     M285.72,42.184l-0.271,0.571h0.54L285.72,42.184z"/>
		<path class="st0" d="M288.562,43.427v-1.579h0.034l1.052,1.21v-1.21h0.156v1.579h-0.035l-1.043-1.195v1.195H288.562z"/>
		<path class="st0" d="M292.028,43.427v-1.579h0.034l1.052,1.21v-1.21h0.156v1.579h-0.035l-1.043-1.195v1.195H292.028z"/>
		<path class="st0" d="M295.472,41.849h0.158v1.579h-0.158V41.849z"/>
		<path class="st0" d="M297.711,41.849h0.172l0.524,1.22l0.532-1.22h0.172l-0.688,1.579h-0.034L297.711,41.849z"/>
		<path class="st0" d="M301.216,41.849h0.906v0.155h-0.748v0.495h0.741v0.155h-0.741v0.62h0.741v0.155h-0.899V41.849z"/>
		<path class="st0" d="M304.242,41.849h0.315c0.175,0,0.294,0.007,0.357,0.021c0.094,0.022,0.17,0.068,0.229,0.138    c0.059,0.071,0.088,0.157,0.088,0.261c0,0.086-0.02,0.162-0.061,0.227c-0.04,0.065-0.098,0.115-0.173,0.148    c-0.075,0.033-0.179,0.05-0.311,0.051l0.568,0.733h-0.195l-0.568-0.733h-0.089v0.733h-0.158V41.849z M304.401,42.003v0.537    l0.272,0.002c0.105,0,0.184-0.01,0.234-0.03s0.09-0.052,0.118-0.096c0.028-0.044,0.043-0.093,0.043-0.148    c0-0.053-0.014-0.101-0.043-0.144c-0.029-0.043-0.066-0.074-0.113-0.093c-0.047-0.019-0.124-0.028-0.232-0.028H304.401z"/>
		<path class="st0" d="M307.245,43.133l0.134-0.08c0.095,0.174,0.204,0.261,0.328,0.261c0.053,0,0.103-0.012,0.149-0.037    c0.047-0.025,0.082-0.058,0.106-0.099S308,43.092,308,43.045c0-0.053-0.018-0.105-0.054-0.155c-0.049-0.07-0.14-0.155-0.271-0.253    c-0.132-0.099-0.214-0.171-0.246-0.216c-0.056-0.074-0.084-0.155-0.084-0.242c0-0.069,0.016-0.131,0.049-0.188    c0.033-0.056,0.079-0.101,0.139-0.134c0.06-0.033,0.125-0.049,0.195-0.049c0.074,0,0.144,0.018,0.209,0.055    s0.133,0.105,0.206,0.203l-0.129,0.098c-0.059-0.079-0.11-0.131-0.152-0.156c-0.042-0.025-0.087-0.038-0.137-0.038    c-0.064,0-0.116,0.019-0.156,0.058c-0.04,0.039-0.061,0.086-0.061,0.143c0,0.034,0.007,0.068,0.022,0.1    c0.014,0.032,0.04,0.067,0.078,0.105c0.021,0.02,0.089,0.073,0.204,0.158c0.137,0.101,0.231,0.191,0.282,0.269    c0.051,0.079,0.076,0.158,0.076,0.237c0,0.115-0.043,0.214-0.13,0.298c-0.087,0.084-0.193,0.127-0.318,0.127    c-0.096,0-0.183-0.026-0.261-0.077C307.383,43.339,307.311,43.253,307.245,43.133z"/>
		<path class="st0" d="M310.989,41.849l0.737,1.579h-0.17l-0.248-0.519h-0.681l-0.246,0.519h-0.176l0.747-1.579H310.989z     M310.969,42.184l-0.271,0.571h0.54L310.969,42.184z"/>
		<path class="st0" d="M313.819,41.849h0.315c0.175,0,0.294,0.007,0.357,0.021c0.094,0.022,0.17,0.068,0.229,0.138    c0.059,0.071,0.088,0.157,0.088,0.261c0,0.086-0.02,0.162-0.061,0.227c-0.04,0.065-0.098,0.115-0.173,0.148    c-0.075,0.033-0.179,0.05-0.311,0.051l0.568,0.733h-0.195l-0.568-0.733h-0.089v0.733h-0.158V41.849z M313.977,42.003v0.537    l0.272,0.002c0.105,0,0.184-0.01,0.234-0.03s0.09-0.052,0.118-0.096c0.028-0.044,0.042-0.093,0.042-0.148    c0-0.053-0.014-0.101-0.043-0.144c-0.029-0.043-0.066-0.074-0.113-0.093c-0.047-0.019-0.124-0.028-0.232-0.028H313.977z"/>
		<path class="st0" d="M316.817,41.849h0.182l0.404,0.651l0.398-0.651h0.183l-0.501,0.824v0.754h-0.156v-0.754L316.817,41.849z"/>
	</g>
	<g>
		<path class="st0" d="M315.613,17.575V17.42h0.866v0.155h-0.352v1.425h-0.161v-1.425H315.613z"/>
		<path class="st0" d="M316.87,17.42h0.158v0.662h0.805V17.42h0.158v1.579h-0.158v-0.762h-0.805v0.762h-0.158V17.42z"/>
	</g>
</g>
<rect x="264.996" y="12.189" class="st0" width="0.209" height="35.622"/>
<path class="st1" d="M230.833,28.047l1.674-3.353c0.206,0.101,0.345,0.32,0.345,0.565c0,0.116-0.031,0.225-0.087,0.318l-1.44,2.394  l0.487-0.075c0.025-0.003,0.051-0.005,0.077-0.005c0.272,0,0.492,0.22,0.492,0.493h1.356l-0.122-0.154h-0.248l-0.055-0.075h0.721  c0.077,0.13,0.216,0.219,0.376,0.229l-0.024,0.075h-3.047l1.26,0.967c0.14,0.107,0.228,0.278,0.228,0.467  c0,0.163-0.065,0.314-0.172,0.421l-1.89-1.855h-2.092l-0.023-0.075L230.833,28.047z M228.525,27.53c0-1.657,1.345-3,3.003-3  c1.659,0,3.003,1.343,3.003,3c0,1.657-1.344,3-3.003,3C229.87,30.53,228.525,29.187,228.525,27.53 M219.163,30.189h4.917  c-0.467-0.777-0.735-1.686-0.735-2.658c0-3.99,3.237-7.223,7.23-7.223l24.751,0.114l-1.278,4.449h-4.883l-2.805,9.768h-5.254  l2.804-9.768h-4.934c0.467,0.777,0.735,1.687,0.735,2.659c0,3.989-3.237,7.223-7.23,7.223l-0.13-0.001l-19.722-0.113l4.081-14.218  h5.256L219.163,30.189z"/>
<path id="PL" class="st0" d="M229.668,18.501l0.551-1.921h0.502l0.403,1.441c0.033,0.119,0.033,0.16,0.033,0.16l0.46-1.601h0.342  l-0.551,1.921h-0.515l-0.391-1.441c-0.028-0.104-0.031-0.17-0.031-0.17l-0.462,1.611H229.668 M233.251,18.501l0.551-1.921h1.363  l-0.092,0.32h-0.996l-0.126,0.441l0.827-0.001l-0.092,0.32h-0.827l-0.149,0.52h0.996l-0.092,0.32H233.251z M227.497,16.579h0.401  l-0.459,1.601h0.881l-0.092,0.32h-1.281L227.497,16.579z M229.098,16.579h0.401l-0.551,1.921h-0.4L229.098,16.579z M232.68,16.579  h0.401l-0.551,1.921h-0.401L232.68,16.579z M238.723,16.582h0.54c0.282,0,0.612,0.257,0.519,0.582l-0.233,0.811  c-0.09,0.314-0.432,0.526-0.749,0.526h-0.424c-0.405,0-0.715-0.291-0.605-0.673l0.212-0.741  C238.073,16.773,238.406,16.582,238.723,16.582 M238.31,18.18h0.544c0.145,0,0.312-0.117,0.369-0.315l0.196-0.682  c0.049-0.17-0.095-0.281-0.183-0.281l-0.553,0.001c-0.153,0-0.319,0.128-0.362,0.277l-0.186,0.647  C238.065,18.071,238.205,18.18,238.31,18.18 M240.19,16.579l-0.092,0.32h0.583l-0.46,1.601h0.397l0.46-1.601h0.56l0.092-0.32H240.19  z M241.66,18.501l0.551-1.921h0.502l0.403,1.441c0.033,0.119,0.033,0.16,0.033,0.16l0.46-1.601h0.342l-0.551,1.921h-0.515  l-0.391-1.441c-0.028-0.104-0.031-0.17-0.031-0.17l-0.462,1.611H241.66z M245.973,18.18h1.053l-0.092,0.32h-0.974  c-0.405,0-0.715-0.292-0.606-0.673l0.213-0.742c0.09-0.315,0.423-0.506,0.741-0.506h0.434c0.397,0,0.709,0.118,0.612,0.455  l-0.122,0.425l-0.379,0l0.107-0.373c0.026-0.09-0.026-0.187-0.131-0.187h-0.559c-0.154,0-0.322,0.129-0.365,0.279l-0.168,0.588  C245.653,18.061,245.79,18.18,245.973,18.18 M247.966,16.579l-0.091,0.32h1.061c0,0-0.051,0.013-0.124,0.08l-1.306,1.201  l-0.091,0.32h1.565l0.092-0.32l-1.065,0c0,0,0.061-0.02,0.126-0.079l1.306-1.202l0.092-0.32H247.966z M249.54,18.501l0.551-1.921  h1.363l-0.092,0.32h-0.996l-0.126,0.441l0.827-0.001l-0.092,0.32h-0.827l-0.149,0.52h0.996l-0.092,0.32H249.54z M236.607,16.579  h0.401l-0.459,1.601h0.881l-0.092,0.32h-1.281L236.607,16.579z M244.672,16.579h0.4l-0.551,1.921h-0.401L244.672,16.579z   M215.438,18.18h0.544c0.144,0,0.312-0.117,0.369-0.315l0.195-0.682c0.049-0.17-0.095-0.281-0.183-0.281l-0.553,0.001  c-0.153,0-0.319,0.128-0.362,0.277l-0.186,0.647C215.193,18.071,215.333,18.18,215.438,18.18 M213.177,16.579l-0.552,1.921h0.401  l0.195-0.681h0.607c0.196,0,0.542-0.096,0.625-0.386l0.101-0.35c0.107-0.372-0.217-0.504-0.358-0.504H213.177z M214.028,16.9  c0.126,0,0.147,0.108,0.127,0.177l-0.063,0.222c-0.052,0.18-0.216,0.241-0.305,0.241h-0.487l0.184-0.64H214.028z M224.141,18.501  l0.551-1.921h1.363l-0.092,0.32h-0.996l-0.126,0.441l0.827-0.001l-0.092,0.32h-0.827l-0.15,0.52h0.996l-0.092,0.32H224.141z   M217.719,16.579h0.4l-0.46,1.601h0.881l-0.092,0.32h-1.281L217.719,16.579z M220.628,16.9l0.092-0.32h-0.921  c-0.253,0-0.514,0.121-0.587,0.377l-0.087,0.305c-0.06,0.209,0.06,0.399,0.359,0.399h0.449c0.064,0,0.153,0.036,0.103,0.211  l-0.022,0.077c-0.041,0.141-0.167,0.232-0.283,0.232h-0.869l-0.092,0.32h0.964c0.254,0,0.549-0.099,0.646-0.436l0.068-0.236  c0.097-0.335-0.143-0.488-0.374-0.488h-0.423c-0.06,0-0.144-0.015-0.11-0.134l0.032-0.112c0.043-0.151,0.125-0.195,0.239-0.195  H220.628z M223.571,16.579h0.401l-0.551,1.921h-0.401L223.571,16.579z M221.969,17.54l0.569,0.961h-0.401l-0.566-0.96l0.999-0.962  h0.401L221.969,17.54z M221.446,16.579h0.401l-0.551,1.921h-0.4L221.446,16.579z M215.851,16.582h0.54  c0.282,0,0.612,0.257,0.519,0.582l-0.233,0.811c-0.09,0.314-0.432,0.526-0.749,0.526h-0.424c-0.405,0-0.714-0.291-0.605-0.673  l0.212-0.741C215.201,16.773,215.534,16.582,215.851,16.582"/>
<g>
	<path class="st3" d="M255.866,42.193h0.038v-0.331h0.144v-0.035h-0.325v0.035h0.143V42.193z M256.522,41.827h0.054v0.366h-0.038   v-0.316l-0.163,0.316h-0.034l-0.161-0.316l-0.001,0.316h-0.038v-0.366h0.055l0.163,0.319L256.522,41.827z"/>
	<rect x="212.63" y="38.455" width="42.702" height="0.115"/>
	<g>
		<path class="st4" d="M252.2,41.527c0.147-0.203,0.311-0.397,0.487-0.582c0.18-0.188,0.371-0.358,0.575-0.514l-0.215,0.855    L252.2,41.527z"/>
		<path class="st5" d="M253.68,41.9c-0.253-0.026-0.501-0.069-0.754-0.133c-0.252-0.062-0.495-0.141-0.726-0.239l0.846-0.24    L253.68,41.9z"/>
		<path class="st6" d="M253.262,40.433c0.099,0.227,0.193,0.468,0.259,0.716c0.071,0.251,0.127,0.5,0.159,0.75l-0.633-0.612    L253.262,40.433z"/>
		<path class="st6" d="M251.904,43.285c-0.152-0.203-0.286-0.419-0.407-0.647c-0.123-0.225-0.225-0.461-0.311-0.7l0.746,0.473    L251.904,43.285z"/>
		<path class="st5" d="M252.713,41.991c-0.104,0.228-0.224,0.456-0.358,0.675c-0.143,0.219-0.291,0.426-0.453,0.619l0.028-0.875    L252.713,41.991z"/>
		<path class="st4" d="M251.186,41.937c0.249-0.025,0.506-0.035,0.763-0.027c0.257,0.009,0.511,0.038,0.764,0.081l-0.782,0.42    L251.186,41.937z"/>
		<path class="st5" d="M253.479,44.112c-0.241,0.078-0.487,0.14-0.74,0.184c-0.256,0.045-0.511,0.072-0.761,0.08l0.674-0.564    L253.479,44.112z"/>
		<path class="st6" d="M252.497,42.943c0.188,0.169,0.366,0.351,0.532,0.549c0.167,0.199,0.315,0.405,0.448,0.621l-0.826-0.302    L252.497,42.943z"/>
		<path class="st4" d="M251.977,44.376c0.049-0.245,0.12-0.491,0.211-0.734c0.085-0.245,0.192-0.477,0.309-0.699l0.155,0.868    L251.977,44.376z"/>
		<path class="st6" d="M254.75,42.867c0.001,0.251-0.014,0.504-0.05,0.76c-0.034,0.258-0.086,0.508-0.16,0.75l-0.326-0.816    L254.75,42.867z"/>
		<path class="st4" d="M253.338,43.437c0.218-0.125,0.447-0.239,0.688-0.337c0.238-0.096,0.482-0.176,0.725-0.234l-0.537,0.694    L253.338,43.437z"/>
		<path class="st5" d="M254.54,44.376c-0.219-0.124-0.431-0.266-0.634-0.424c-0.204-0.16-0.393-0.334-0.57-0.514l0.878,0.123    L254.54,44.376z"/>
		<path class="st6" d="M253.963,41.271c0.236,0.078,0.474,0.172,0.71,0.283c0.229,0.115,0.448,0.244,0.659,0.384l-0.881,0.061    L253.963,41.271z"/>
		<path class="st4" d="M254.067,42.792c-0.048-0.245-0.091-0.498-0.106-0.754c-0.018-0.259-0.018-0.516,0.001-0.767L254.452,42    L254.067,42.792z"/>
		<path class="st5" d="M255.333,41.939c-0.184,0.169-0.386,0.328-0.604,0.474c-0.212,0.141-0.435,0.269-0.662,0.378L254.452,42    L255.333,41.939z"/>
	</g>
	<polygon points="239.488,41.802 239.727,41.802 239.727,43.425 239.56,43.425 239.56,42.022 239.555,42.022 238.842,43.425    238.685,43.425 237.972,42.02 237.968,42.02 237.968,43.425 237.8,43.425 237.8,41.802 238.046,41.802 238.767,43.213  "/>
	<g>
		<path d="M215.289,42.893c0,0.16,0.046,0.276,0.139,0.373c0.127,0.123,0.348,0.187,0.624,0.187c0.158,0,0.691-0.034,0.691-0.477    c0-0.389-0.355-0.425-0.669-0.458c-0.325-0.034-0.563-0.069-0.563-0.29c0-0.105,0.054-0.186,0.168-0.24    c0.121-0.055,0.25-0.061,0.38-0.061c0.106,0,0.293,0.016,0.402,0.122c0.047,0.05,0.071,0.128,0.071,0.203l0.165,0.002    c0-0.117-0.04-0.238-0.114-0.311c-0.137-0.138-0.366-0.167-0.535-0.167c-0.233,0-0.458,0.051-0.598,0.19    c-0.075,0.074-0.112,0.164-0.112,0.262c0,0.384,0.39,0.415,0.695,0.442c0.144,0.012,0.279,0.026,0.38,0.07    c0.108,0.047,0.159,0.123,0.159,0.244c0,0.075-0.028,0.139-0.076,0.187c-0.12,0.12-0.363,0.133-0.452,0.133    c-0.222,0-0.396-0.047-0.49-0.143c-0.07-0.068-0.103-0.151-0.104-0.269H215.289z M217.002,41.807v0.158h0.626v1.458h0.166v-1.458    h0.624v-0.158H217.002z M219.206,41.807l-0.74,1.616h0.182c0,0,0.213-0.461,0.23-0.501h0.814c0.017,0.039,0.229,0.501,0.229,0.501    h0.183l-0.745-1.616H219.206z M219.286,42.03c0.049,0.113,0.299,0.657,0.337,0.738h-0.675    C218.986,42.687,219.236,42.143,219.286,42.03 M220.573,41.807v1.616h0.166v-0.704h0.656c0.288,0,0.356,0.059,0.365,0.311    c0.007,0.262,0.018,0.347,0.053,0.381l0.01,0.011h0.168l-0.024-0.053c-0.025-0.049-0.037-0.149-0.04-0.411    c-0.002-0.159-0.087-0.277-0.226-0.329c0.18-0.079,0.256-0.242,0.256-0.381c0-0.297-0.183-0.443-0.559-0.443H220.573z     M221.404,41.965c0.256,0,0.38,0.092,0.38,0.281c0,0.21-0.131,0.316-0.402,0.316h-0.643v-0.597H221.404z M223.875,41.807    l-0.745,1.616h0.188c0,0,0.206-0.461,0.227-0.501h0.812c0.017,0.039,0.232,0.501,0.232,0.501h0.184l-0.74-1.616H223.875z     M223.952,42.03c0.052,0.113,0.299,0.657,0.339,0.738h-0.676C223.652,42.687,223.9,42.143,223.952,42.03 M229.757,41.807    l-0.743,1.616h0.188c0,0,0.206-0.461,0.222-0.501h0.816c0.018,0.039,0.228,0.501,0.228,0.501h0.184l-0.739-1.616H229.757z     M229.834,42.03c0.051,0.113,0.298,0.657,0.338,0.738h-0.673C229.535,42.687,229.784,42.143,229.834,42.03 M225.294,41.807v1.616    h1.163v-0.158h-0.998v-1.458H225.294z M226.817,41.807v1.616h1.163v-0.158h-0.997v-1.458H226.817z M228.33,43.423h0.166v-1.616    h-0.166V43.423z M232.447,41.807v1.347c-0.104-0.124-1.171-1.347-1.171-1.347h-0.169v1.616h0.167v-1.348    c0.103,0.125,1.172,1.348,1.172,1.348h0.167v-1.616H232.447z M235.358,41.807v1.616h1.307v-0.158h-1.14v-0.6h1.081V42.51h-1.081    v-0.546h1.124v-0.158H235.358z M233.139,42.618c0,0.511,0.354,0.839,0.874,0.839c0.489,0,0.778-0.328,0.82-0.652l0.003-0.039    h-0.184l-0.003,0.029c-0.038,0.311-0.291,0.505-0.635,0.505c-0.503,0-0.703-0.355-0.703-0.684c0-0.404,0.293-0.686,0.711-0.686    c0.317,0,0.547,0.151,0.613,0.408l0.004,0.025h0.179l-0.013-0.043c-0.079-0.349-0.365-0.549-0.782-0.549    C233.428,41.772,233.139,42.21,233.139,42.618"/>
		<path d="M213.546,41.797h-0.156l-0.745,1.615h0.184c0,0,0.212-0.46,0.23-0.498h0.815c0.016,0.039,0.225,0.498,0.225,0.498h0.187    L213.546,41.797z M213.128,42.76c0.039-0.083,0.285-0.625,0.337-0.739c0.052,0.113,0.299,0.656,0.34,0.739H213.128z"/>
	</g>
	<polygon points="240.251,41.809 240.251,43.426 241.551,43.426 241.551,43.268 240.415,43.268 240.415,42.668 241.498,42.668    241.498,42.514 240.415,42.514 240.415,41.967 241.538,41.967 241.538,41.809  "/>
	<polygon points="243.752,41.803 243.986,41.803 243.986,43.427 243.823,43.427 243.823,42.023 243.819,42.023 243.102,43.427    242.947,43.427 242.233,42.021 242.229,42.021 242.229,43.427 242.065,43.427 242.065,41.803 242.307,41.803 243.03,43.215  "/>
	<g>
		<path d="M244.685,41.959h0.714c0.186,0,0.317,0.063,0.317,0.26c0,0.215-0.142,0.292-0.372,0.292h-0.659V41.959z M244.515,43.424    h0.897c0.249,0,0.535-0.123,0.535-0.462c0-0.206-0.127-0.362-0.342-0.395v-0.004c0.196-0.045,0.278-0.191,0.278-0.349    c0-0.23-0.13-0.407-0.452-0.407h-0.916V43.424z M244.685,42.662h0.741c0.196,0,0.341,0.065,0.341,0.299    c0,0.223-0.164,0.311-0.383,0.311h-0.699V42.662z"/>
	</g>
	<polygon points="246.476,41.809 246.476,43.425 247.781,43.425 247.781,43.268 246.642,43.268 246.642,42.666 247.723,42.666    247.723,42.511 246.642,42.511 246.642,41.966 247.765,41.966 247.765,41.809  "/>
	<g>
		<path d="M249.681,43.371c-0.025-0.05-0.035-0.149-0.037-0.41c-0.003-0.161-0.09-0.278-0.229-0.328    c0.183-0.08,0.254-0.243,0.254-0.38c0-0.299-0.184-0.444-0.557-0.444h-0.826v1.616h0.174v-0.704h0.65    c0.291,0,0.355,0.059,0.364,0.31c0.004,0.264,0.017,0.347,0.051,0.381l0.013,0.013h0.172L249.681,43.371z M249.098,42.563h-0.639    v-0.597h0.661c0.257,0,0.379,0.093,0.379,0.28C249.498,42.456,249.366,42.563,249.098,42.563"/>
	</g>
</g>
</svg>